<svg width="612" height="606" viewBox="0 0 612 606" fill="none" xmlns="http://www.w3.org/2000/svg">
<path d="M467.519 36.4231C487.588 65.6798 464.056 113.115 493.837 135.118C522.828 156.538 558.441 121.428 585.761 139.866C626.29 167.217 618.888 292.372 559.634 370.133C541.813 393.518 526.923 402.618 520.329 429.065C506.168 485.856 555.936 519.638 546.464 547.726C525.139 610.969 197.181 664.037 65.5875 473.972C4.12956 385.203 -5.06784 257.022 49.8438 159.668C149.071 -16.2537 422.483 -29.2257 467.519 36.4231Z" fill="#88ACD0" fill-opacity="0.1"/>
<path d="M305.376 567.542C315.315 537.255 325.43 491.021 313.588 439.688C299.989 380.744 269.869 368.952 242.824 305.945C204.218 216.007 247.91 150.855 207.945 123.367C188.456 109.962 157.807 109.952 138.912 123.409C85.0038 161.807 99.7821 329.055 185.315 394.321C223.999 423.838 257.756 420.336 286.784 458.534C312.435 492.286 310.423 536.812 305.376 567.542Z" fill="url(#paint0_linear)"/>
<path d="M311.567 491.308L312.279 491.127C309.024 478.342 304.652 465.778 299.28 453.788C286.924 426.206 273.306 411.06 256.067 391.88C244.861 379.416 232.164 365.289 217.494 345.045C190.058 307.175 181.545 293.881 173.935 272.494C158.868 230.144 161.182 192.177 163.904 173.314C167.761 146.556 176.74 121.091 190.588 97.6292L189.954 97.2547C176.058 120.802 167.048 146.357 163.175 173.21C160.445 192.139 158.123 230.24 173.242 272.739C180.881 294.214 189.411 307.539 216.897 345.475C231.587 365.751 244.301 379.895 255.517 392.374C272.713 411.503 286.295 426.614 298.605 454.09C303.966 466.04 308.325 478.562 311.567 491.308Z" fill="white"/>
<path d="M165.637 242.548L165.647 241.943C166.201 210.734 186.146 190.535 202.782 179.086C220.834 166.664 238.979 161.572 239.16 161.522L238.964 160.812C238.781 160.862 220.517 165.985 202.366 178.479C185.698 189.95 165.733 210.139 164.925 241.31C162.052 239.635 148.014 230.991 135.388 215.087C122.407 198.736 108.303 171.139 114.829 132.525L114.103 132.402C107.529 171.298 121.746 199.098 134.83 215.568C149.001 233.409 164.946 242.173 165.104 242.261L165.637 242.548Z" fill="white"/>
<path d="M170.527 342.745C173.719 342.745 176.73 342.587 179.516 342.333C197.035 340.731 209.585 335.05 209.709 334.992L209.99 334.863L209.911 334.563C201.877 303.931 208.85 281.362 216.112 267.822C223.986 253.144 233.891 245.613 233.991 245.538L233.55 244.949C233.45 245.024 223.435 252.634 215.482 267.443C208.17 281.058 201.149 303.721 209.12 334.447C207.177 335.287 195.379 340.148 179.425 341.603C163.39 343.066 139.743 341.284 118.179 324.502L117.727 325.083C135.741 339.102 155.187 342.745 170.527 342.745Z" fill="white"/>
<path d="M206.596 401.282C215.939 401.282 223.616 399.983 229.552 398.366C244.22 394.373 251.747 387.619 251.822 387.55L252.017 387.373L251.911 387.132C238.325 356.013 257.278 305.105 257.469 304.595L256.78 304.335C256.587 304.847 237.632 355.767 251.129 387.178C249.864 388.247 242.524 394.082 229.311 397.669C215.91 401.309 193.552 403.315 163.142 392.205L162.89 392.896C180.053 399.165 194.679 401.282 206.596 401.282Z" fill="white"/>
<path d="M336.186 520.061C339.548 499.716 341.483 467.944 324.922 439.53C296.031 389.958 243.373 406.403 192.969 353.293C152.315 310.459 165.127 277.167 120.081 248.699C112.54 243.934 72.6998 217.713 43.0726 233.507C26.3779 242.407 20.3289 260.676 19.1927 264.106C2.02988 315.944 54.8315 397.103 123.652 434.224C163.192 455.55 175.95 448.582 245.531 473.454C286.416 488.068 317.115 506.889 336.186 520.061Z" fill="url(#paint1_linear)"/>
<path d="M342.135 544.53L342.855 544.38C332.731 495.754 313.529 463.083 285.783 447.277C272.201 439.54 261.387 438.315 249.938 437.02C237.626 435.626 224.891 434.186 208.084 424.021C191.749 414.143 185.894 404.632 178.48 392.592C171.811 381.761 163.512 368.284 144.885 350.33C128.558 334.595 116.668 327.228 106.179 320.732C94.8151 313.692 85.8404 308.132 75.4486 294.515C58.4751 272.271 49.6023 243.751 49.08 209.743L48.3455 209.754C48.8699 243.921 57.7925 272.589 74.8638 294.961C85.3389 308.686 94.3656 314.277 105.794 321.356C116.252 327.834 128.105 335.177 144.375 350.858C162.936 368.748 171.207 382.182 177.854 392.977C185.32 405.102 191.217 414.68 207.703 424.652C224.65 434.898 237.464 436.348 249.855 437.751C261.227 439.037 271.968 440.254 285.419 447.916C312.974 463.614 332.055 496.119 342.135 544.53Z" fill="white"/>
<path d="M106.316 324.319C107.718 324.319 109.129 324.299 110.561 324.255L111.052 324.24L110.898 323.772C110.675 323.094 88.8451 255.595 113.711 227.693L113.162 227.204C105.9 235.355 98.0903 252.232 102.142 286.356C104.335 304.84 109.142 320.649 110.051 323.535C73.0805 324.536 45.5613 310.54 28.9769 298.594C10.9172 285.586 1.54713 272.134 1.45557 271.998L0.850007 272.415C0.943646 272.55 10.3699 286.09 28.5233 299.172C44.6353 310.783 71.0018 324.319 106.316 324.319Z" fill="white"/>
<path d="M103.6 381.828C109.302 381.828 114.604 381.532 119.415 381.068C145.28 378.578 162.824 370.849 162.996 370.77L163.285 370.641L163.202 370.335C153.48 335.14 162.058 285.064 162.145 284.563L161.421 284.436C161.334 284.937 152.779 334.886 162.409 370.223C160.031 371.23 143.261 378.037 119.317 380.338C95.5621 382.623 59.684 380.81 23.6603 359.213L23.2816 359.844C52.1909 377.177 81.0086 381.828 103.6 381.828Z" fill="white"/>
<path d="M134.249 463.936C168.049 463.936 194.161 456.795 210.402 450.629C228.905 443.606 238.954 436.292 239.051 436.219L239.364 435.99L239.118 435.691C212.396 403.069 222.806 349.173 222.914 348.632L222.192 348.488C222.084 349.032 211.672 402.934 238.298 435.851C234.405 438.55 195.058 464.573 129.06 463.145L129.043 463.88C130.797 463.917 132.535 463.936 134.249 463.936Z" fill="white"/>
<path d="M300.963 516.5C289.649 508.369 271.13 496.599 246.22 487.768C201.914 472.062 181.609 481.328 162.855 462.596C143.44 443.207 156.015 424.111 132.77 402.459C130.816 400.639 105.858 377.993 83.2788 386.424C67.4831 392.324 61.3321 410.267 58.448 418.686C47.2489 451.359 53.7599 501.146 88.6183 525.704C121.666 548.987 163.508 537.89 176.792 534.273C200.098 527.926 205.62 518.844 229.313 513.1C258.124 506.115 284.021 511.29 300.963 516.5Z" fill="url(#paint2_linear)"/>
<path d="M300.963 516.501C289.649 508.369 271.13 496.599 246.22 487.768C201.915 472.062 181.61 481.328 162.855 462.596C143.44 443.207 156.015 424.111 132.77 402.459C130.816 400.639 105.858 377.993 83.2789 386.424C67.4832 392.324 61.3321 410.267 58.4481 418.686C47.2489 451.359 53.7599 501.146 88.6184 525.704C121.666 548.987 163.508 537.89 176.792 534.273C200.098 527.927 205.62 518.844 229.313 513.1C258.125 506.115 284.021 511.29 300.963 516.501Z" fill="url(#paint3_linear)"/>
<path d="M310.26 523.848L310.695 523.255C283.134 503.087 256.218 493.586 230.707 495.014C219.552 495.638 211.724 498.12 204.153 500.522C194.69 503.524 185.75 506.358 170.92 505.74C144.231 504.625 121.456 495.569 106.795 480.24C84.0862 456.497 79.061 416.667 93.9932 378.769L93.3086 378.498C78.2723 416.663 83.3559 456.799 106.264 480.747C121.057 496.216 144.009 505.353 170.889 506.475C185.859 507.099 194.85 504.244 204.378 501.223C211.905 498.836 219.689 496.368 230.751 495.748C256.092 494.331 282.839 503.784 310.26 523.848Z" fill="white"/>
<path d="M95.8389 465.341L95.7973 464.777C94.0848 442.039 107.777 424.791 119.565 414.324C132.362 402.963 145.729 396.92 145.863 396.862L145.563 396.19C145.428 396.25 131.958 402.339 119.078 413.775C107.265 424.263 93.5604 441.502 95.0253 464.259C90.0459 462.33 51.8289 446.517 49.3236 415.25L48.5912 415.309C51.2942 449.066 94.8692 464.995 95.3083 465.151L95.8389 465.341Z" fill="white"/>
<path d="M104.252 517.077C110.807 517.077 116.6 516.413 121.531 515.466C139.805 511.962 150.495 503.934 150.601 503.853L150.886 503.635L150.676 503.343C137.362 484.988 139.576 464.873 143.778 451.23C148.339 436.421 156.148 425.838 156.227 425.732L155.638 425.293C155.559 425.399 147.673 436.086 143.076 451.014C138.848 464.744 136.615 484.959 149.868 503.477C148.054 504.762 137.816 511.602 121.356 514.748C104.635 517.947 77.8875 517.878 45.4116 499.396L45.0475 500.035C68.1657 513.198 88.4166 517.077 104.252 517.077Z" fill="white"/>
<path d="M497.826 511.84L512.806 502.838H519.567C519.567 502.838 521.87 511.411 521.608 511.84C518.595 516.775 504.57 520.531 495.818 520.841C494.366 520.893 492.337 520.9 491.813 519.847C490.928 518.063 494.892 514.322 497.826 511.84Z" fill="url(#paint4_linear)"/>
<path d="M513.073 493.016C513.098 498.26 512.873 501.962 511.56 503.589C510.636 504.735 519.519 507.312 519.567 502.84C519.598 499.895 520.062 494.845 520.533 493.364C518.046 493.245 515.559 493.131 513.073 493.016Z" fill="url(#paint5_linear)"/>
<path d="M397.667 500.024L412.647 491.023H419.407C419.407 491.023 421.711 499.596 421.449 500.024C418.435 504.96 404.411 508.716 395.658 509.026C394.206 509.078 392.177 509.084 391.653 508.032C390.768 506.25 394.733 502.509 397.667 500.024Z" fill="url(#paint6_linear)"/>
<path d="M417.197 481.266C415.015 485.44 412.713 490.147 411.4 491.774C410.476 492.92 417.857 495.22 419.407 491.025C420.664 487.623 424.187 483.095 424.657 481.613C422.171 481.497 419.684 481.382 417.197 481.266Z" fill="url(#paint7_linear)"/>
<path d="M420.279 235.677C426.076 274.225 429.861 322.168 426.443 376.93C423.916 417.377 417.976 453.291 411.034 483.769C415.658 484.967 420.279 486.166 424.903 487.365C430.658 486.031 438.817 483.147 444.421 476.063C451.789 466.752 448.429 458.166 453.666 442.676C458.667 427.89 464.641 427.105 470.617 414.424C478.412 397.886 473.651 387.758 474.213 365.628C475.162 328.192 489.592 325.291 494.245 278.822C496.68 254.492 497.882 240.521 489.11 231.565C476.822 219.026 449.808 221.251 420.279 235.677Z" fill="url(#paint8_linear)"/>
<path d="M452.125 238.245C467.958 275.088 484.413 322.276 495.271 378.471C503.948 423.38 507.101 463.942 507.598 498.152C512.734 498.152 517.871 498.152 523.007 498.152C527.464 491.666 533.321 481.611 536.876 468.36C540.419 455.147 538.191 451.742 540.471 430.863C543.58 402.41 547.652 401.099 547.149 384.121C546.57 364.611 540.64 364.688 538.417 345.084C535.128 316.083 547.105 307.134 546.637 280.363C546.427 268.338 543.659 250.224 530.2 227.972C504.175 231.397 478.15 234.822 452.125 238.245Z" fill="url(#paint9_linear)"/>
<path d="M249.745 233.738L243.704 239.092C243.704 239.092 230.443 238.57 225.667 239.783C220.892 240.998 212.654 245.137 212.654 245.137C212.654 245.137 214.714 248.177 217.633 247.026C220.555 245.873 225.066 244.317 225.934 244.739C226.802 245.162 228.843 250.661 235.797 251.581C242.751 252.501 245.987 244.315 245.987 244.315L252.571 238.726L249.745 233.738Z" fill="url(#paint10_linear)"/>
<path d="M318.962 92.7559C316.515 93.0556 311.719 94.5351 300.857 114.715C285.771 142.738 285.8 158.679 277.743 175.967C271.727 188.875 259.8 205.53 233.604 220.366C235.583 222.697 237.562 225.027 239.538 227.358C250.161 228.207 266.889 228.246 286.104 222.485C292.094 220.689 303.031 217.324 314.742 209.721C323.486 204.042 350.369 186.584 354.404 157.477C358.813 125.658 334.338 90.8686 318.962 92.7559Z" fill="url(#paint11_linear)"/>
<path d="M456.877 56.9278C441.121 51.8797 428.788 53.278 406.797 55.773C374.704 59.4124 354.131 70.0518 336.298 79.272C318.773 88.3341 314.133 93.4489 311.642 99.3044C305.836 112.959 312.909 127.874 317.421 137.057C328.938 160.502 339.627 159.689 364.034 187.909C385.506 212.736 396.243 225.15 403.329 243.383C406.462 251.448 409.523 261.892 419.509 268.039C429.202 274.004 440.205 272.712 446.475 271.89C472.819 268.442 475.153 251.442 492.318 252.628C505.996 253.575 508.963 264.678 532.383 268.421C542.852 270.094 545.904 268.459 547.407 267.267C553.106 262.741 552.442 251.92 547.022 229.899C538.688 196.041 531.259 185.065 524.293 158.245C517.058 130.392 522.63 132.841 516.587 117.025C514.558 111.708 497.92 70.0767 456.877 56.9278Z" fill="url(#paint12_linear)"/>
<path d="M453.644 197.298L398.112 136.348C396.772 134.577 394.562 133.695 392.371 134.053L328.774 144.448C326.048 144.894 324.793 148.092 326.487 150.273L378.186 216.789C379.571 218.573 381.844 219.426 384.062 218.993L450.015 206.793C454.366 205.946 456.32 200.831 453.644 197.298Z" fill="url(#paint13_linear)"/>
<path d="M455.978 177.678L444.09 172.49C444.09 172.49 439.552 166.006 435.877 164.926C432.202 163.846 419.018 165.359 419.018 165.359C419.018 165.359 420.315 170.547 422.909 171.41C425.502 172.276 433.501 172.923 434.797 175.518C436.094 178.11 440.848 180.056 442.578 179.192C444.307 178.327 455.329 182.002 455.329 182.002L455.978 177.678Z" fill="url(#paint14_linear)"/>
<path opacity="0.3" d="M451.869 258.021C457.347 251.329 454.393 243.304 461.884 236.447C474.09 225.279 496.178 233.542 497.325 229.514C498.7 224.688 465.615 217.69 461.884 198.694C460.192 190.082 466.422 188.617 465.735 177.122C465.092 166.345 458.363 157.462 444.933 140.139C434.329 126.462 431.46 125.348 431.064 120.107C429.874 104.35 449.777 93.3864 458.03 87.7473C468.124 80.8514 478.674 77.2765 488.519 75.6409C506.895 92.5666 515.189 113.373 516.585 117.027C522.628 132.844 517.055 130.396 524.291 158.247C531.257 185.065 538.686 196.043 547.02 229.901C552.44 251.922 553.104 262.743 547.405 267.269C545.902 268.463 542.848 270.099 532.381 268.424C508.961 264.68 505.994 253.575 492.316 252.63C475.151 251.442 472.817 268.444 446.473 271.892C440.203 272.712 429.198 274.006 419.507 268.041C417.324 266.699 415.489 265.14 413.895 263.457C437.19 267.733 447.272 263.633 451.869 258.021Z" fill="url(#paint15_linear)"/>
<path d="M344.259 40.2352C347.778 48.6918 360.952 70.0268 389.426 59.5726C397.046 56.7738 398.347 57.7602 398.788 58.347C400.938 61.2123 385.673 80.2625 364.071 86.0702C350.895 89.6118 336.804 87.8368 336.055 84.1683C335.301 80.4747 344.715 80.8118 345.797 73.1106C346.55 67.7483 335.707 61.3247 330.13 57.7019C331.044 50.6915 343.344 47.2581 344.259 40.2352Z" fill="url(#paint16_linear)"/>
<path d="M320.573 56.9507C315.693 55.3485 311.74 49.828 312.464 44.4053C313.088 39.7379 317.019 36.7644 319.375 34.9832C326.206 29.8164 337.339 26.9886 344.661 31.1045C349.004 33.5453 349.888 43.4897 350.144 45.2189C350.431 47.1749 349.449 48.4921 348.989 50.3752C348.352 52.9867 347.381 57.111 345.866 63.9424C344.686 62.8978 343.13 61.6597 341.182 60.4736C340.433 60.0179 337.472 58.2575 334.153 57.3149C327.5 55.4234 325.201 58.4698 320.573 56.9507Z" fill="url(#paint17_linear)"/>
<path d="M349.695 56.6698C349.695 56.6698 349.636 66.6579 339.617 71.8372C330.663 76.4629 317.774 59.9513 320.796 53.0054C321.805 50.6874 325.134 47.9823 328.626 46.9439C330.69 46.3301 331.731 46.6276 335.085 45.5643C338.183 44.5822 338.76 43.8643 339.979 43.9891C341.504 44.1452 343.504 45.5664 345.225 51.6321C345.868 49.1579 347.462 47.4038 349.262 47.1582C349.549 47.1187 350.385 47.125 351.089 47.4725C353.634 48.7251 353.313 52.4582 349.695 56.6698Z" fill="url(#paint18_linear)"/>
<path d="M406.025 62.3214C416.438 44.7444 465.459 51.1743 498.482 70.4117C509.236 76.6772 542.032 95.7815 544.325 128.967C544.575 132.573 545.216 147.228 536.62 160.941C522.164 184.005 487.982 194.183 451.866 185.21C452.251 181.359 452.636 177.505 453.021 173.653C456.097 173.759 468.338 173.828 479.217 164.793C481.396 162.983 494.345 152.227 492.316 142.449C488.908 126.035 447.969 134.985 421.432 107.393C409.536 95.022 399.171 73.8909 406.025 62.3214Z" fill="url(#paint19_linear)"/>
<path d="M377.326 490.007C370.676 500.615 361.187 507.008 348.856 509.18L83.3789 114.984L111.849 95.8106L377.326 490.007Z" fill="url(#paint20_linear)"/>
<path d="M359.431 505.976C363.412 504.182 366.989 501.793 370.166 498.807L102.845 101.874L92.1392 109.084L359.431 505.976Z" fill="url(#paint21_linear)"/>
<path d="M111.849 95.8105C106.16 107.613 96.7129 114.066 83.3788 114.984L36.5929 16.786C36.0956 15.6332 37.5626 14.6448 38.4449 15.5396L111.849 95.8105Z" fill="url(#paint22_linear)"/>
<path d="M36.5929 16.786L54.7796 54.9572C59.5531 53.2259 63.6191 50.4854 66.9901 46.7545L38.4429 15.5375C37.5627 14.6448 36.0956 15.6332 36.5929 16.786Z" fill="url(#paint23_linear)"/>
<path d="M342.572 481.149C336.381 487.706 328.778 490.883 319.761 490.679L187.794 174.854L210.604 165.324L342.572 481.149Z" fill="url(#paint24_linear)"/>
<path d="M210.602 165.324C204.921 172.858 197.341 176.086 187.792 174.854L168.581 98.9048C168.392 98.0204 169.568 97.5294 170.065 98.2847L210.602 165.324Z" fill="url(#paint25_linear)"/>
<path d="M168.583 98.9069L176.052 128.43C179.668 127.881 182.925 126.518 185.832 124.358L170.067 98.2868C169.57 97.5293 168.394 98.0204 168.583 98.9069Z" fill="url(#paint26_linear)"/>
<path d="M138.752 7.9903C138.752 7.9903 125.029 36.1026 135.152 75.7033C145.276 115.304 173.072 134.442 182.752 128.47C192.432 122.497 204.969 99.2773 194.761 80.4352C184.55 61.593 144.685 33.4287 138.752 7.9903Z" fill="url(#paint27_linear)"/>
<path d="M138.752 7.9903C138.752 7.9903 125.029 36.1026 135.152 75.7033C145.276 115.304 173.072 134.442 182.752 128.47C192.432 122.497 204.969 99.2773 194.761 80.4352C184.55 61.593 144.685 33.4287 138.752 7.9903Z" fill="url(#paint28_linear)"/>
<g opacity="0.3">
<path opacity="0.3" d="M138.752 7.9903C139.322 10.4311 140.207 12.899 141.345 15.3794C135.866 36.2046 139.035 47.5598 144.369 54.1644C151.818 63.3888 162.056 61.6097 169.803 73.6516C179.976 89.4619 169.605 103.845 177.949 115.036C180.078 117.89 183.491 120.618 189.186 122.375C187.08 125.069 184.849 127.175 182.752 128.47C173.074 134.442 145.278 115.304 135.152 75.7033C125.029 36.1026 138.752 7.9903 138.752 7.9903Z" fill="url(#paint29_linear)"/>
</g>
<path d="M20.0481 549.18L604.43 544.091V559.15C604.43 563.236 601.881 566.711 598.429 567.332L433.185 596.986C431.224 597.337 429.235 597.431 427.256 597.265L26.4009 563.455C22.8219 563.153 20.0502 559.668 20.0502 555.467V549.18H20.0481Z" fill="url(#paint30_linear)"/>
<path d="M208.17 524.768L597.998 552.316C604.973 552.809 610.646 547.572 610.646 540.616V261.933C610.646 254.977 604.973 249.338 597.998 249.338H208.17C202.422 249.338 197.776 254.436 197.776 260.724V512.647C197.776 518.935 202.422 524.362 208.17 524.768Z" fill="url(#paint31_linear)"/>
<path d="M201.952 524.768L591.783 552.316C598.758 552.809 604.43 547.572 604.43 540.616V261.933C604.43 254.977 598.758 249.338 591.783 249.338H201.954C196.207 249.338 191.56 254.436 191.56 260.724V512.647C191.56 518.935 196.205 524.362 201.952 524.768Z" fill="url(#paint32_linear)"/>
<path d="M214.098 507.008L577.184 530.938C582.86 531.312 587.474 527.013 587.474 521.334V277.346C587.474 271.668 582.86 267.046 577.184 267.021L214.098 265.519C209.358 265.5 205.523 269.676 205.523 274.849V497.078C205.521 502.249 209.356 506.696 214.098 507.008Z" fill="white"/>
<path d="M383.101 256.962C383.101 259.551 385.107 261.657 387.585 261.665C390.065 261.673 392.079 259.574 392.079 256.979C392.079 254.384 390.067 252.278 387.585 252.276C385.107 252.274 383.101 254.371 383.101 256.962Z" fill="white"/>
<path opacity="0.48" d="M295.875 448.336C325.927 432.166 349.557 452.656 372.363 432.44C386.189 420.184 379.401 411.045 396.414 392.729C415.256 372.443 427.523 379.262 446.46 361.007C470.405 337.922 458.43 319.962 479.053 303.388C504.073 283.281 531.055 301.892 554.873 282.609C565.146 274.291 570.781 262.2 573.725 249.342H597.031C601.116 249.342 604.43 252.653 604.43 256.735V545.614C604.43 549.696 601.114 552.772 597.031 552.481L199.73 524.279C197.78 524.141 196.051 523.001 194.942 521.351C224.026 520.292 241.892 510.541 253.314 500.461C275.658 480.743 271.781 461.3 295.875 448.336Z" fill="white"/>
<path d="M211.68 523.519L604.43 552.516L433.185 583.246C431.224 583.598 429.235 583.691 427.256 583.525L20.0501 549.178L205.433 523.715C207.506 523.432 209.597 523.365 211.68 523.519Z" fill="url(#paint33_linear)"/>
<path opacity="0.3" d="M547.122 553.246L220.145 528.744L118.949 542.532L443.108 568.724L547.122 553.246Z" fill="url(#paint34_linear)"/>
<path d="M215.09 334.894L578.214 340.429V274.423H215.09V334.894Z" fill="#D8DEE8"/>
<path d="M330.232 452.627L560.289 462.669V351.922L330.232 347.789V452.627Z" fill="#D8DEE8"/>
<path d="M230.254 376.674L316.792 378.894V347.546L230.254 345.991V376.674Z" fill="#D8DEE8"/>
<path d="M230.254 448.263L316.792 452.04V389.997L230.254 387.54V448.263Z" fill="#D8DEE8"/>
<path d="M230.254 462.326L560.289 477.897V504.199L230.254 486.615V462.326Z" fill="#D8DEE8"/>
<path d="M130.82 295.266L546.456 300.485C548.811 300.514 550.736 298.615 550.736 296.259V228.115C550.736 225.781 548.843 223.887 546.508 223.887H130.874C128.54 223.887 126.648 225.781 126.648 228.115V291.04C126.646 293.354 128.506 295.237 130.82 295.266Z" fill="url(#paint35_linear)"/>
<path d="M222.488 434.324L486.288 443.933V316.152L222.488 312.123V434.324Z" fill="url(#paint36_linear)"/>
<path d="M106.16 346.268L206.909 348.447V311.884L106.16 310.346V346.268Z" fill="url(#paint37_linear)"/>
<path d="M106.16 430.085L206.909 433.756V361.394L106.16 358.99V430.085Z" fill="url(#paint38_linear)"/>
<path d="M94.5612 443.434L473.081 458.145V488.426L94.5612 471.812V443.434Z" fill="url(#paint39_linear)"/>
<path d="M534.306 242.432C531.48 242.432 529.189 240.141 529.189 237.315C529.189 234.489 531.48 232.198 534.306 232.198C537.132 232.198 539.422 234.489 539.422 237.315C539.422 240.141 537.132 242.432 534.306 242.432Z" fill="url(#paint40_linear)"/>
<path d="M517.49 242.432C514.664 242.432 512.373 240.141 512.373 237.315C512.373 234.489 514.664 232.198 517.49 232.198C520.316 232.198 522.607 234.489 522.607 237.315C522.607 240.141 520.316 242.432 517.49 242.432Z" fill="url(#paint41_linear)"/>
<path d="M500.675 242.432C497.849 242.432 495.558 240.141 495.558 237.315C495.558 234.489 497.849 232.198 500.675 232.198C503.501 232.198 505.792 234.489 505.792 237.315C505.792 240.141 503.501 242.432 500.675 242.432Z" fill="url(#paint42_linear)"/>
<path d="M243.84 223.889C243.84 223.889 226.129 216.822 222.488 219.105C218.844 221.388 215.09 230.373 212.398 233.74C209.705 237.107 216.992 237.163 222.488 232.2C227.983 227.235 243.84 223.889 243.84 223.889Z" fill="url(#paint43_linear)"/>
<defs>
<linearGradient id="paint0_linear" x1="280.249" y1="140.635" x2="172.8" y2="482.519" gradientUnits="userSpaceOnUse">
<stop offset="0.00359712" stop-color="#E38DDD"/>
<stop offset="1" stop-color="#9571F6"/>
</linearGradient>
<linearGradient id="paint1_linear" x1="40.7377" y1="995.639" x2="60.5142" y2="908.389" gradientUnits="userSpaceOnUse">
<stop stop-color="#AA80F9"/>
<stop offset="0.9964" stop-color="#6165D7"/>
</linearGradient>
<linearGradient id="paint2_linear" x1="49.286" y1="439.49" x2="410.198" y2="573.91" gradientUnits="userSpaceOnUse">
<stop stop-color="#FF9085"/>
<stop offset="1" stop-color="#FB6FBB"/>
</linearGradient>
<linearGradient id="paint3_linear" x1="300.963" y1="462.326" x2="53.4308" y2="462.326" gradientUnits="userSpaceOnUse">
<stop stop-color="#FF9085"/>
<stop offset="1" stop-color="#FB6FBB"/>
</linearGradient>
<linearGradient id="paint4_linear" x1="491.69" y1="511.848" x2="521.631" y2="511.848" gradientUnits="userSpaceOnUse">
<stop stop-color="#311944"/>
<stop offset="1" stop-color="#6B3976"/>
</linearGradient>
<linearGradient id="paint5_linear" x1="512.32" y1="510.147" x2="537.101" y2="435.806" gradientUnits="userSpaceOnUse">
<stop stop-color="#FFC444"/>
<stop offset="0.9964" stop-color="#F36F56"/>
</linearGradient>
<linearGradient id="paint6_linear" x1="391.528" y1="500.034" x2="421.47" y2="500.034" gradientUnits="userSpaceOnUse">
<stop stop-color="#311944"/>
<stop offset="1" stop-color="#6B3976"/>
</linearGradient>
<linearGradient id="paint7_linear" x1="413.754" y1="499.477" x2="441.043" y2="417.61" gradientUnits="userSpaceOnUse">
<stop stop-color="#FFC444"/>
<stop offset="0.9964" stop-color="#F36F56"/>
</linearGradient>
<linearGradient id="paint8_linear" x1="481.727" y1="189.993" x2="415.466" y2="439.626" gradientUnits="userSpaceOnUse">
<stop stop-color="#311944"/>
<stop offset="1" stop-color="#6B3976"/>
</linearGradient>
<linearGradient id="paint9_linear" x1="563.347" y1="363.062" x2="468.28" y2="363.062" gradientUnits="userSpaceOnUse">
<stop stop-color="#311944"/>
<stop offset="1" stop-color="#6B3976"/>
</linearGradient>
<linearGradient id="paint10_linear" x1="224.849" y1="215.394" x2="253.1" y2="311.96" gradientUnits="userSpaceOnUse">
<stop stop-color="#FFC444"/>
<stop offset="0.9964" stop-color="#F36F56"/>
</linearGradient>
<linearGradient id="paint11_linear" x1="418.617" y1="286.654" x2="251.532" y2="130.604" gradientUnits="userSpaceOnUse">
<stop stop-color="#AA80F9"/>
<stop offset="0.9964" stop-color="#6165D7"/>
</linearGradient>
<linearGradient id="paint12_linear" x1="488.804" y1="204.706" x2="325.464" y2="52.1524" gradientUnits="userSpaceOnUse">
<stop stop-color="#AA80F9"/>
<stop offset="0.9964" stop-color="#6165D7"/>
</linearGradient>
<linearGradient id="paint13_linear" x1="360.54" y1="140.734" x2="419.767" y2="211.659" gradientUnits="userSpaceOnUse">
<stop stop-color="#444B8C"/>
<stop offset="0.9964" stop-color="#26264F"/>
</linearGradient>
<linearGradient id="paint14_linear" x1="432.554" y1="154.629" x2="460.804" y2="251.195" gradientUnits="userSpaceOnUse">
<stop stop-color="#FFC444"/>
<stop offset="0.9964" stop-color="#F36F56"/>
</linearGradient>
<linearGradient id="paint15_linear" x1="488.809" y1="204.701" x2="325.468" y2="52.1468" gradientUnits="userSpaceOnUse">
<stop stop-color="#5026AB"/>
<stop offset="0.9964" stop-color="#6165D7"/>
</linearGradient>
<linearGradient id="paint16_linear" x1="396.897" y1="97.3137" x2="321.321" y2="31.1023" gradientUnits="userSpaceOnUse">
<stop stop-color="#FFC444"/>
<stop offset="0.9964" stop-color="#F36F56"/>
</linearGradient>
<linearGradient id="paint17_linear" x1="374.979" y1="75.1676" x2="321.871" y2="36.4993" gradientUnits="userSpaceOnUse">
<stop stop-color="#311944"/>
<stop offset="1" stop-color="#6B3976"/>
</linearGradient>
<linearGradient id="paint18_linear" x1="333.785" y1="49.0685" x2="376.703" y2="124.458" gradientUnits="userSpaceOnUse">
<stop stop-color="#FFC444"/>
<stop offset="0.9964" stop-color="#F36F56"/>
</linearGradient>
<linearGradient id="paint19_linear" x1="522.119" y1="169.036" x2="358.778" y2="16.4824" gradientUnits="userSpaceOnUse">
<stop stop-color="#AA80F9"/>
<stop offset="0.9964" stop-color="#6165D7"/>
</linearGradient>
<linearGradient id="paint20_linear" x1="210.523" y1="303.084" x2="308.309" y2="300.182" gradientUnits="userSpaceOnUse">
<stop stop-color="#AB316D"/>
<stop offset="1" stop-color="#792D3D"/>
</linearGradient>
<linearGradient id="paint21_linear" x1="266.754" y1="271.698" x2="224.131" y2="310.31" gradientUnits="userSpaceOnUse">
<stop stop-color="#AB316D"/>
<stop offset="1" stop-color="#792D3D"/>
</linearGradient>
<linearGradient id="paint22_linear" x1="46.0868" y1="9.4417" x2="179.284" y2="257.485" gradientUnits="userSpaceOnUse">
<stop stop-color="#FFC444"/>
<stop offset="0.9964" stop-color="#F36F56"/>
</linearGradient>
<linearGradient id="paint23_linear" x1="24.6947" y1="-5.67132" x2="79.1232" y2="79.3446" gradientUnits="userSpaceOnUse">
<stop stop-color="#AB316D"/>
<stop offset="1" stop-color="#792D3D"/>
</linearGradient>
<linearGradient id="paint24_linear" x1="251.095" y1="325.624" x2="320.569" y2="337.35" gradientUnits="userSpaceOnUse">
<stop stop-color="#40447E"/>
<stop offset="0.9964" stop-color="#3C3B6B"/>
</linearGradient>
<linearGradient id="paint25_linear" x1="176.322" y1="95.0561" x2="235.456" y2="289.015" gradientUnits="userSpaceOnUse">
<stop stop-color="#FFC444"/>
<stop offset="0.9964" stop-color="#F36F56"/>
</linearGradient>
<linearGradient id="paint26_linear" x1="163.343" y1="81.3678" x2="189.809" y2="149.083" gradientUnits="userSpaceOnUse">
<stop stop-color="#AB316D"/>
<stop offset="1" stop-color="#792D3D"/>
</linearGradient>
<linearGradient id="paint27_linear" x1="128.674" y1="15.4676" x2="179.999" y2="108.961" gradientUnits="userSpaceOnUse">
<stop stop-color="#FF9085"/>
<stop offset="1" stop-color="#FB6FBB"/>
</linearGradient>
<linearGradient id="paint28_linear" x1="128.674" y1="15.4676" x2="179.999" y2="108.961" gradientUnits="userSpaceOnUse">
<stop stop-color="#FF9085"/>
<stop offset="1" stop-color="#FB6FBB"/>
</linearGradient>
<linearGradient id="paint29_linear" x1="122.435" y1="18.8924" x2="173.761" y2="112.385" gradientUnits="userSpaceOnUse">
<stop stop-color="#FF9085"/>
<stop offset="1" stop-color="#351010"/>
</linearGradient>
<linearGradient id="paint30_linear" x1="357.59" y1="571.643" x2="398.641" y2="588.885" gradientUnits="userSpaceOnUse">
<stop stop-color="#40447E"/>
<stop offset="0.9964" stop-color="#3C3B6B"/>
</linearGradient>
<linearGradient id="paint31_linear" x1="412.406" y1="390.716" x2="456.957" y2="409.427" gradientUnits="userSpaceOnUse">
<stop stop-color="#40447E"/>
<stop offset="0.9964" stop-color="#3C3B6B"/>
</linearGradient>
<linearGradient id="paint32_linear" x1="604.43" y1="400.844" x2="191.559" y2="400.844" gradientUnits="userSpaceOnUse">
<stop stop-color="#40447E"/>
<stop offset="0.9964" stop-color="#3C3B6B"/>
</linearGradient>
<linearGradient id="paint33_linear" x1="604.43" y1="553.522" x2="20.0488" y2="553.522" gradientUnits="userSpaceOnUse">
<stop stop-color="#40447E"/>
<stop offset="0.9964" stop-color="#3C3B6B"/>
</linearGradient>
<linearGradient id="paint34_linear" x1="547.122" y1="548.734" x2="118.949" y2="548.734" gradientUnits="userSpaceOnUse">
<stop stop-color="#40447E"/>
<stop offset="0.9964" stop-color="#3C3B6B"/>
</linearGradient>
<linearGradient id="paint35_linear" x1="246.712" y1="139.443" x2="407.907" y2="349.983" gradientUnits="userSpaceOnUse">
<stop stop-color="#FF9085"/>
<stop offset="1" stop-color="#FB6FBB"/>
</linearGradient>
<linearGradient id="paint36_linear" x1="396.847" y1="419.516" x2="243.328" y2="259.418" gradientUnits="userSpaceOnUse">
<stop offset="0.00359712" stop-color="#E38DDD"/>
<stop offset="1" stop-color="#9571F6"/>
</linearGradient>
<linearGradient id="paint37_linear" x1="154.971" y1="326.235" x2="286.559" y2="565.286" gradientUnits="userSpaceOnUse">
<stop stop-color="#FFC444"/>
<stop offset="0.9964" stop-color="#F36F56"/>
</linearGradient>
<linearGradient id="paint38_linear" x1="126.808" y1="341.737" x2="258.396" y2="580.787" gradientUnits="userSpaceOnUse">
<stop stop-color="#FFC444"/>
<stop offset="0.9964" stop-color="#F36F56"/>
</linearGradient>
<linearGradient id="paint39_linear" x1="359.732" y1="496.562" x2="159.416" y2="413.219" gradientUnits="userSpaceOnUse">
<stop offset="0.00359712" stop-color="#E38DDD"/>
<stop offset="1" stop-color="#9571F6"/>
</linearGradient>
<linearGradient id="paint40_linear" x1="532.72" y1="232.448" x2="535.891" y2="242.183" gradientUnits="userSpaceOnUse">
<stop offset="0.494" stop-color="#EBEFF2"/>
<stop offset="1" stop-color="white"/>
</linearGradient>
<linearGradient id="paint41_linear" x1="515.905" y1="232.448" x2="519.077" y2="242.183" gradientUnits="userSpaceOnUse">
<stop offset="0.494" stop-color="#EBEFF2"/>
<stop offset="1" stop-color="white"/>
</linearGradient>
<linearGradient id="paint42_linear" x1="499.09" y1="232.448" x2="502.262" y2="242.183" gradientUnits="userSpaceOnUse">
<stop offset="0.494" stop-color="#EBEFF2"/>
<stop offset="1" stop-color="white"/>
</linearGradient>
<linearGradient id="paint43_linear" x1="230.625" y1="241.612" x2="239.398" y2="279.628" gradientUnits="userSpaceOnUse">
<stop stop-color="#FFC444"/>
<stop offset="0.9964" stop-color="#F36F56"/>
</linearGradient>
</defs>
</svg>
