<svg width="343" height="471" viewBox="0 0 343 471" fill="none" xmlns="http://www.w3.org/2000/svg">
<path d="M304.526 470.287C314.465 440 324.58 393.766 312.738 342.433C299.139 283.489 269.019 271.697 241.974 208.691C203.368 118.752 247.06 53.6007 207.095 26.1126C187.605 12.7078 156.957 12.6974 138.062 26.1542C84.1538 64.5522 98.9321 231.801 184.465 297.067C223.149 326.583 256.906 323.081 285.934 361.28C311.585 395.031 309.573 439.557 304.526 470.287Z" fill="url(#paint0_linear)"/>
<path d="M310.717 394.053L311.429 393.872C308.174 381.087 303.802 368.523 298.43 356.533C286.074 328.951 272.456 313.805 255.217 294.626C244.011 282.161 231.314 268.035 216.644 247.79C189.208 209.92 180.695 196.626 173.085 175.239C158.018 132.889 160.332 94.9222 163.054 76.0593C166.911 49.3016 175.89 23.8362 189.738 0.374551L189.104 0C175.208 23.5469 166.198 49.1019 162.325 75.9553C159.595 94.8848 157.273 132.985 172.392 175.484C180.031 196.959 188.561 210.285 216.047 248.221C230.737 268.496 243.451 282.64 254.667 295.119C271.863 314.248 285.445 329.359 297.755 356.835C303.116 368.785 307.475 381.308 310.717 394.053Z" fill="white"/>
<path d="M164.787 145.293L164.797 144.688C165.351 113.479 185.296 93.2804 201.932 81.8316C219.984 69.4089 238.129 64.3171 238.31 64.2671L238.114 63.5576C237.931 63.6075 219.667 68.7305 201.516 81.224C184.848 92.6957 164.883 112.884 164.075 144.055C161.202 142.38 147.164 133.736 134.537 117.832C121.557 101.481 107.453 73.8848 113.979 35.2705L113.252 35.1477C106.679 74.043 120.895 101.843 133.98 118.313C148.15 136.154 164.096 144.919 164.254 145.006L164.787 145.293Z" fill="white"/>
<path d="M169.677 245.491C172.869 245.491 175.88 245.332 178.666 245.079C196.185 243.476 208.735 237.796 208.859 237.737L209.14 237.608L209.061 237.309C201.027 206.676 208 184.108 215.262 170.567C223.136 155.889 233.041 148.358 233.141 148.284L232.7 147.695C232.6 147.77 222.585 155.379 214.632 170.189C207.32 183.804 200.299 206.466 208.271 237.192C206.327 238.033 194.529 242.894 178.575 244.348C162.54 245.811 138.893 244.03 117.329 227.248L116.877 227.828C134.891 241.847 154.337 245.491 169.677 245.491Z" fill="white"/>
<path d="M205.746 304.027C215.089 304.027 222.766 302.729 228.702 301.112C243.37 297.119 250.897 290.364 250.972 290.295L251.167 290.119L251.061 289.877C237.475 258.758 256.428 207.85 256.619 207.34L255.93 207.08C255.737 207.592 236.782 258.513 250.279 289.923C249.014 290.993 241.674 296.827 228.461 300.415C215.06 304.054 192.702 306.06 162.292 294.95L162.04 295.641C179.203 301.911 193.829 304.027 205.746 304.027Z" fill="white"/>
<path d="M335.335 422.806C338.698 402.462 340.633 370.689 324.072 342.275C295.181 292.703 242.523 309.148 192.119 256.038C151.465 213.204 164.277 179.913 119.231 151.444C111.69 146.679 71.8496 120.458 42.2225 136.252C25.5278 145.152 19.4788 163.422 18.3426 166.851C1.17975 218.689 53.9814 299.849 122.801 336.969C162.342 358.296 175.099 351.327 244.681 376.199C285.566 390.813 316.264 409.634 335.335 422.806Z" fill="url(#paint1_linear)"/>
<path d="M341.285 447.275L342.005 447.125C331.881 398.5 312.679 365.828 284.933 350.022C271.351 342.286 260.537 341.06 249.088 339.766C236.776 338.371 224.041 336.932 207.234 326.767C190.899 316.889 185.044 307.377 177.63 295.337C170.961 284.507 162.662 271.029 144.034 253.075C127.708 237.34 115.818 229.974 105.329 223.477C93.965 216.438 84.9903 210.878 74.5985 197.261C57.625 175.016 48.7522 146.496 48.2299 112.489L47.4954 112.499C48.0198 146.667 56.9424 175.335 74.0138 197.706C84.4888 211.431 93.5155 217.022 104.944 224.102C115.402 230.579 127.254 237.923 143.525 253.604C162.086 271.493 170.357 284.927 177.003 295.722C184.47 307.847 190.367 317.426 206.853 327.397C223.8 337.643 236.614 339.094 249.005 340.496C260.377 341.782 271.118 342.999 284.569 350.661C312.124 366.359 331.205 398.864 341.285 447.275Z" fill="white"/>
<path d="M105.466 227.065C106.868 227.065 108.279 227.044 109.711 227L110.202 226.986L110.048 226.517C109.825 225.839 87.9949 158.34 112.861 130.438L112.312 129.949C105.05 138.1 97.2401 154.978 101.292 189.102C103.485 207.586 108.292 223.394 109.201 226.28C72.2304 227.281 44.7111 213.285 28.1267 201.339C10.067 188.332 0.696936 174.879 0.605378 174.744L-0.000181997 175.16C0.0934563 175.295 9.51971 188.835 27.6731 201.918C43.7851 213.529 70.1516 227.065 105.466 227.065Z" fill="white"/>
<path d="M102.75 284.573C108.452 284.573 113.754 284.278 118.565 283.814C144.43 281.323 161.973 273.595 162.146 273.516L162.435 273.387L162.352 273.081C152.63 237.885 161.208 187.809 161.295 187.308L160.571 187.181C160.483 187.682 151.929 237.631 161.559 272.968C159.181 273.975 142.411 280.782 118.467 283.083C94.7119 285.368 58.8338 283.556 22.8101 261.958L22.4314 262.589C51.3407 279.922 80.1584 284.573 102.75 284.573Z" fill="white"/>
<path d="M133.399 366.682C167.198 366.682 193.311 359.54 209.552 353.374C228.055 346.352 238.103 339.037 238.201 338.965L238.513 338.736L238.268 338.436C211.546 305.815 221.956 251.918 222.064 251.377L221.342 251.234C221.234 251.777 210.821 305.679 237.448 338.596C233.555 341.295 194.208 367.318 128.21 365.891L128.193 366.625C129.947 366.663 131.685 366.682 133.399 366.682Z" fill="white"/>
<path d="M300.113 419.246C288.799 411.114 270.28 399.345 245.37 390.513C201.064 374.807 180.759 384.073 162.005 365.341C142.59 345.952 155.165 326.856 131.92 305.205C129.966 303.384 105.008 280.738 82.4287 289.17C66.6329 295.069 60.4819 313.012 57.5978 321.431C46.3987 354.105 52.9097 403.891 87.7681 428.449C120.816 451.732 162.658 440.635 175.942 437.018C199.248 430.672 204.77 421.589 228.463 415.846C257.274 408.86 283.17 414.035 300.113 419.246Z" fill="url(#paint2_linear)"/>
<path d="M300.113 419.246C288.799 411.114 270.28 399.345 245.37 390.514C201.064 374.807 180.759 384.073 162.005 365.341C142.59 345.952 155.165 326.856 131.92 305.205C129.966 303.384 105.008 280.738 82.4287 289.17C66.6329 295.069 60.4819 313.012 57.5978 321.431C46.3987 354.105 52.9097 403.891 87.7681 428.449C120.816 451.732 162.658 440.635 175.942 437.018C199.248 430.672 204.77 421.589 228.463 415.846C257.274 408.86 283.17 414.035 300.113 419.246Z" fill="url(#paint3_linear)"/>
<path d="M309.41 426.593L309.845 426C282.284 405.833 255.368 396.332 229.857 397.759C218.702 398.383 210.873 400.866 203.303 403.267C193.84 406.27 184.9 409.104 170.07 408.486C143.381 407.37 120.606 398.315 105.944 382.985C83.2361 359.242 78.2108 319.413 93.143 281.514L92.4584 281.244C77.4221 319.409 82.5057 359.544 105.414 383.493C120.207 398.962 143.158 408.099 170.039 409.22C185.008 409.845 194 406.99 203.528 403.968C211.054 401.582 218.839 399.114 229.901 398.494C255.241 397.076 281.989 406.53 309.41 426.593Z" fill="white"/>
<path d="M94.9887 368.086L94.9471 367.522C93.2346 344.785 106.927 327.537 118.715 317.07C131.512 305.708 144.879 299.666 145.012 299.607L144.713 298.935C144.578 298.996 131.108 305.084 118.228 316.52C106.415 327.008 92.7102 344.248 94.1751 367.004C89.1957 365.075 50.9787 349.263 48.4734 317.996L47.741 318.054C50.444 351.812 94.0191 367.741 94.4581 367.897L94.9887 368.086Z" fill="white"/>
<path d="M103.402 419.822C109.956 419.822 115.749 419.159 120.681 418.212C138.955 414.708 149.644 406.68 149.751 406.598L150.036 406.38L149.825 406.089C136.512 387.733 138.726 367.618 142.927 353.976C147.489 339.166 155.298 328.583 155.377 328.477L154.788 328.038C154.709 328.144 146.823 338.831 142.226 353.759C137.998 367.489 135.765 387.704 149.018 406.222C147.204 407.508 136.966 414.348 120.506 417.494C103.785 420.692 77.0373 420.623 44.5615 402.141L44.1973 402.78C67.3156 415.944 87.5664 419.822 103.402 419.822Z" fill="white"/>
<defs>
<linearGradient id="paint0_linear" x1="279.399" y1="43.3807" x2="171.95" y2="385.265" gradientUnits="userSpaceOnUse">
<stop offset="0.00359712" stop-color="#E38DDD"/>
<stop offset="1" stop-color="#9571F6"/>
</linearGradient>
<linearGradient id="paint1_linear" x1="39.8876" y1="898.384" x2="59.6641" y2="811.135" gradientUnits="userSpaceOnUse">
<stop stop-color="#AA80F9"/>
<stop offset="0.9964" stop-color="#6165D7"/>
</linearGradient>
<linearGradient id="paint2_linear" x1="48.4358" y1="342.236" x2="409.348" y2="476.656" gradientUnits="userSpaceOnUse">
<stop stop-color="#FF9085"/>
<stop offset="1" stop-color="#FB6FBB"/>
</linearGradient>
<linearGradient id="paint3_linear" x1="300.113" y1="365.071" x2="52.5806" y2="365.071" gradientUnits="userSpaceOnUse">
<stop stop-color="#FF9085"/>
<stop offset="1" stop-color="#FB6FBB"/>
</linearGradient>
</defs>
</svg>
