<svg width="243" height="481" viewBox="0 0 243 481" fill="none" xmlns="http://www.w3.org/2000/svg">
<path d="M189.006 471.707L203.986 462.705H210.747C210.747 462.705 213.05 471.278 212.788 471.707C209.775 476.643 195.75 480.399 186.998 480.709C185.546 480.761 183.517 480.767 182.993 479.714C182.108 477.931 186.072 474.189 189.006 471.707Z" fill="url(#paint0_linear)"/>
<path d="M204.253 452.884C204.278 458.127 204.053 461.829 202.74 463.456C201.816 464.603 210.699 467.179 210.747 462.707C210.778 459.763 211.242 454.713 211.713 453.231C209.226 453.112 206.739 452.998 204.253 452.884Z" fill="url(#paint1_linear)"/>
<path d="M88.8463 459.892L103.826 450.89H110.587C110.587 450.89 112.891 459.463 112.628 459.892C109.615 464.828 95.5904 468.584 86.8383 468.894C85.3859 468.946 83.357 468.952 82.8327 467.899C81.9483 466.118 85.9123 462.376 88.8463 459.892Z" fill="url(#paint2_linear)"/>
<path d="M108.377 441.133C106.194 445.307 103.893 450.014 102.58 451.641C101.656 452.788 109.037 455.087 110.587 450.892C111.844 447.49 115.367 442.962 115.837 441.481C113.351 441.364 110.864 441.25 108.377 441.133Z" fill="url(#paint3_linear)"/>
<path d="M111.459 195.545C117.256 234.092 121.041 282.035 117.623 336.797C115.096 377.245 109.156 413.158 102.214 443.636C106.837 444.835 111.459 446.033 116.083 447.232C121.838 445.898 129.997 443.014 135.601 435.931C142.969 426.619 139.609 418.033 144.846 402.544C149.847 387.757 155.821 386.973 161.797 374.292C169.592 357.753 164.831 347.626 165.393 325.496C166.342 288.059 180.772 285.159 185.425 238.689C187.86 214.36 189.062 200.389 180.289 191.433C168.002 178.894 140.988 181.118 111.459 195.545Z" fill="url(#paint4_linear)"/>
<path d="M143.304 198.112C159.138 234.956 175.593 282.143 186.451 338.339C195.128 383.248 198.28 423.81 198.778 458.019C203.913 458.019 209.051 458.019 214.187 458.019C218.644 451.533 224.501 441.478 228.055 428.228C231.599 415.014 229.37 411.61 231.651 390.731C234.76 362.277 238.832 360.966 238.329 343.988C237.75 324.478 231.82 324.555 229.597 304.952C226.307 275.951 238.285 267.001 237.817 240.231C237.607 228.206 234.839 210.092 221.38 187.839C195.355 191.264 169.33 194.689 143.304 198.112Z" fill="url(#paint5_linear)"/>
<path d="M148.057 16.7953C132.301 11.7471 119.968 13.1455 97.9773 15.6404C65.8843 19.2798 45.3109 29.9192 27.478 39.1395C9.95308 48.2016 5.31278 53.3163 2.822 59.1718C-2.98357 72.8264 4.08925 87.7419 8.60053 96.9247C20.118 120.37 30.8074 119.556 55.2137 147.777C76.686 172.603 87.4232 185.018 94.5085 203.25C97.6423 211.315 100.703 221.759 110.689 227.906C120.382 233.872 131.385 232.58 137.655 231.758C163.999 228.31 166.333 211.309 183.498 212.495C197.176 213.442 200.143 224.545 223.563 228.289C234.032 229.962 237.084 228.326 238.587 227.134C244.286 222.608 243.622 211.788 238.202 189.766C229.868 155.909 222.439 144.932 215.473 118.112C208.237 90.2598 213.81 92.7089 207.767 76.8924C205.738 71.5758 189.1 29.9442 148.057 16.7953Z" fill="url(#paint6_linear)"/>
<path opacity="0.3" d="M143.048 217.889C148.527 211.197 145.572 203.171 153.064 196.315C165.27 185.147 187.358 193.41 188.505 189.381C189.88 184.556 156.795 177.558 153.064 158.562C151.372 149.949 157.602 148.484 156.915 136.989C156.272 126.213 149.543 117.33 136.113 100.006C125.509 86.329 122.639 85.2158 122.244 79.9741C121.054 64.2179 140.957 53.2539 149.21 47.6148C159.304 40.7188 169.854 37.1439 179.698 35.5084C198.074 52.434 206.369 73.2405 207.765 76.8945C213.808 92.711 208.235 90.2639 215.47 118.114C222.437 144.932 229.866 155.911 238.2 189.768C243.62 211.79 244.284 222.61 238.584 227.136C237.082 228.331 234.027 229.966 223.561 228.291C200.141 224.548 197.173 213.442 183.496 212.497C166.331 211.309 163.996 228.312 137.653 231.76C131.383 232.58 120.378 233.874 110.687 227.908C108.504 226.566 106.669 225.007 105.075 223.324C128.37 227.6 138.452 223.501 143.048 217.889Z" fill="url(#paint7_linear)"/>
<path d="M35.4393 0.102692C38.958 8.55927 52.1319 29.8943 80.6062 19.4401C88.2263 16.6413 89.5269 17.6276 89.968 18.2144C92.1175 21.0798 76.8524 40.13 55.2511 45.9376C42.0751 49.4792 27.9836 47.7043 27.2345 44.0357C26.4812 40.3422 35.895 40.6793 36.977 32.9781C37.7303 27.6157 26.887 21.1921 21.3103 17.5694C22.2238 10.559 34.5237 7.12557 35.4393 0.102692Z" fill="url(#paint8_linear)"/>
<defs>
<linearGradient id="paint0_linear" x1="182.87" y1="471.716" x2="212.811" y2="471.716" gradientUnits="userSpaceOnUse">
<stop stop-color="#311944"/>
<stop offset="1" stop-color="#6B3976"/>
</linearGradient>
<linearGradient id="paint1_linear" x1="203.5" y1="470.015" x2="228.281" y2="395.673" gradientUnits="userSpaceOnUse">
<stop stop-color="#FFC444"/>
<stop offset="0.9964" stop-color="#F36F56"/>
</linearGradient>
<linearGradient id="paint2_linear" x1="82.7082" y1="459.902" x2="112.649" y2="459.902" gradientUnits="userSpaceOnUse">
<stop stop-color="#311944"/>
<stop offset="1" stop-color="#6B3976"/>
</linearGradient>
<linearGradient id="paint3_linear" x1="104.934" y1="459.345" x2="132.223" y2="377.478" gradientUnits="userSpaceOnUse">
<stop stop-color="#FFC444"/>
<stop offset="0.9964" stop-color="#F36F56"/>
</linearGradient>
<linearGradient id="paint4_linear" x1="172.907" y1="149.861" x2="106.646" y2="399.494" gradientUnits="userSpaceOnUse">
<stop stop-color="#311944"/>
<stop offset="1" stop-color="#6B3976"/>
</linearGradient>
<linearGradient id="paint5_linear" x1="254.527" y1="322.93" x2="159.459" y2="322.93" gradientUnits="userSpaceOnUse">
<stop stop-color="#311944"/>
<stop offset="1" stop-color="#6B3976"/>
</linearGradient>
<linearGradient id="paint6_linear" x1="179.984" y1="164.573" x2="16.6441" y2="12.0198" gradientUnits="userSpaceOnUse">
<stop stop-color="#AA80F9"/>
<stop offset="0.9964" stop-color="#6165D7"/>
</linearGradient>
<linearGradient id="paint7_linear" x1="179.989" y1="164.568" x2="16.6481" y2="12.0142" gradientUnits="userSpaceOnUse">
<stop stop-color="#5026AB"/>
<stop offset="0.9964" stop-color="#6165D7"/>
</linearGradient>
<linearGradient id="paint8_linear" x1="88.077" y1="57.1812" x2="12.5004" y2="-9.03025" gradientUnits="userSpaceOnUse">
<stop stop-color="#FFC444"/>
<stop offset="0.9964" stop-color="#F36F56"/>
</linearGradient>
</defs>
</svg>
