<svg width="41" height="44" viewBox="0 0 41 44" fill="none" xmlns="http://www.w3.org/2000/svg">
<path d="M8.19493 27.8181C3.31533 26.2159 -0.638279 20.6954 0.0858574 15.2727C0.710113 10.6053 4.64086 7.63179 6.99638 5.85058C13.8278 0.68383 24.9604 -2.14405 32.2829 1.97188C36.6256 4.41272 37.51 14.3571 37.7659 16.0863C38.0531 18.0423 37.0709 19.3595 36.6111 21.2426C35.9743 23.8541 35.0026 27.9784 33.4877 34.8098C32.3079 33.7652 30.7514 32.5271 28.8037 31.341C28.0546 30.8853 25.0935 29.1249 21.7746 28.1823C15.1221 26.2908 12.8227 29.3372 8.19493 27.8181Z" fill="url(#paint0_linear)"/>
<path d="M37.3164 27.5372C37.3164 27.5372 37.2581 37.5253 27.2388 42.7045C18.2849 47.3303 5.39611 30.8187 8.41751 23.8728C9.42672 21.5548 12.7561 18.8497 16.2478 17.8113C18.312 17.1975 19.3524 17.495 22.7067 16.4317C25.8051 15.4495 26.3815 14.7316 27.6009 14.8565C29.1261 15.0126 31.1258 16.4338 32.8467 22.4995C33.4897 20.0253 35.0836 18.2712 36.8836 18.0256C37.1707 17.9861 38.0072 17.9923 38.7105 18.3398C41.2554 19.5925 40.935 23.3256 37.3164 27.5372Z" fill="url(#paint1_linear)"/>
<defs>
<linearGradient id="paint0_linear" x1="62.6012" y1="46.0351" x2="9.49286" y2="7.3667" gradientUnits="userSpaceOnUse">
<stop stop-color="#311944"/>
<stop offset="1" stop-color="#6B3976"/>
</linearGradient>
<linearGradient id="paint1_linear" x1="21.4063" y1="19.9359" x2="64.3245" y2="95.3255" gradientUnits="userSpaceOnUse">
<stop stop-color="#FFC444"/>
<stop offset="0.9964" stop-color="#F36F56"/>
</linearGradient>
</defs>
</svg>
