<svg width="591" height="349" viewBox="0 0 591 349" fill="none" xmlns="http://www.w3.org/2000/svg">
<path d="M2.98132e-08 299.842L584.382 294.753V309.812C584.382 313.899 581.833 317.374 578.381 317.994L413.137 347.648C411.176 348 409.187 348.093 407.208 347.927L6.35285 314.117C2.77378 313.815 0.00208291 310.33 0.00208291 306.129V299.842H2.98132e-08Z" fill="url(#paint0_linear)"/>
<path d="M188.122 275.43L577.95 302.978C584.925 303.471 590.598 298.234 590.598 291.278V12.5954C590.598 5.63911 584.925 0 577.95 0H188.122C182.374 0 177.728 5.09808 177.728 11.3864V263.309C177.728 269.597 182.374 275.024 188.122 275.43Z" fill="url(#paint1_linear)"/>
<path d="M181.904 275.43L571.735 302.978C578.71 303.471 584.382 298.234 584.382 291.278V12.5954C584.382 5.63911 578.71 -7.62939e-06 571.735 -7.62939e-06H181.906C176.159 -7.62939e-06 171.512 5.09807 171.512 11.3864V263.309C171.512 269.597 176.157 275.024 181.904 275.43Z" fill="url(#paint2_linear)"/>
<path d="M194.05 257.67L557.136 281.6C562.812 281.974 567.426 277.675 567.426 271.996V28.0083C567.426 22.3296 562.812 17.7081 557.136 17.6831L194.05 16.1807C189.31 16.162 185.475 20.3382 185.475 25.5112V247.74C185.473 252.911 189.308 257.358 194.05 257.67Z" fill="white"/>
<path d="M363.053 7.62424C363.053 10.2128 365.059 12.3186 367.537 12.327C370.017 12.3353 372.031 10.2357 372.031 7.64088C372.031 5.04606 370.019 2.94024 367.537 2.93816C365.059 2.93608 363.053 5.03358 363.053 7.62424Z" fill="white"/>
<path opacity="0.48" d="M275.827 198.998C305.879 182.828 329.509 203.318 352.315 183.102C366.14 170.846 359.353 161.707 376.366 143.391C395.208 123.105 407.475 129.924 426.412 111.669C450.357 88.5839 438.381 70.6241 459.005 54.0501C484.025 33.9428 511.007 52.554 534.825 33.2707C545.098 24.9536 550.733 12.8617 553.677 0.00415039H576.983C581.068 0.00415039 584.382 3.31479 584.382 7.39742V296.276C584.382 300.358 581.065 303.434 576.983 303.143L179.682 274.941C177.732 274.804 176.003 273.663 174.894 272.013C203.978 270.954 221.844 261.203 233.266 251.123C255.61 231.405 251.733 211.962 275.827 198.998Z" fill="white"/>
<path d="M191.632 274.181L584.382 303.178L413.137 333.908C411.176 334.26 409.187 334.353 407.208 334.187L0.00199922 299.84L185.385 274.377C187.458 274.094 189.549 274.027 191.632 274.181Z" fill="url(#paint3_linear)"/>
<path opacity="0.3" d="M527.074 303.908L200.097 279.406L98.901 293.194L423.06 319.386L527.074 303.908Z" fill="url(#paint4_linear)"/>
<path d="M195.042 85.5563L558.166 91.0914V25.0847H195.042V85.5563Z" fill="#D8DEE8"/>
<path d="M310.184 203.289L540.241 213.331V102.584L310.184 98.4514V203.289Z" fill="#D8DEE8"/>
<path d="M210.205 127.336L296.744 129.556V98.2079L210.205 96.6535V127.336Z" fill="#D8DEE8"/>
<path d="M210.205 198.925L296.744 202.702V140.659L210.205 138.202V198.925Z" fill="#D8DEE8"/>
<path d="M210.206 212.988L540.241 228.559V254.861L210.206 237.277V212.988Z" fill="#D8DEE8"/>
<defs>
<linearGradient id="paint0_linear" x1="337.542" y1="322.305" x2="378.593" y2="339.547" gradientUnits="userSpaceOnUse">
<stop stop-color="#40447E"/>
<stop offset="0.9964" stop-color="#3C3B6B"/>
</linearGradient>
<linearGradient id="paint1_linear" x1="392.358" y1="141.378" x2="436.909" y2="160.089" gradientUnits="userSpaceOnUse">
<stop stop-color="#40447E"/>
<stop offset="0.9964" stop-color="#3C3B6B"/>
</linearGradient>
<linearGradient id="paint2_linear" x1="584.382" y1="151.506" x2="171.511" y2="151.506" gradientUnits="userSpaceOnUse">
<stop stop-color="#40447E"/>
<stop offset="0.9964" stop-color="#3C3B6B"/>
</linearGradient>
<linearGradient id="paint3_linear" x1="584.382" y1="304.184" x2="0.000678339" y2="304.184" gradientUnits="userSpaceOnUse">
<stop stop-color="#40447E"/>
<stop offset="0.9964" stop-color="#3C3B6B"/>
</linearGradient>
<linearGradient id="paint4_linear" x1="527.074" y1="299.396" x2="98.9013" y2="299.396" gradientUnits="userSpaceOnUse">
<stop stop-color="#40447E"/>
<stop offset="0.9964" stop-color="#3C3B6B"/>
</linearGradient>
</defs>
</svg>
