<svg width="411" height="204" viewBox="0 0 411 204" fill="none" xmlns="http://www.w3.org/2000/svg">
<path d="M4.03547 198.952L406.064 204C408.342 204.028 410.204 202.19 410.204 199.912V133.999C410.204 131.741 408.372 129.909 406.114 129.909H4.0878C1.82952 129.909 -6.21197e-05 131.741 -6.21197e-05 133.999V194.864C-0.00207485 197.102 1.79731 198.924 4.03547 198.952Z" fill="url(#paint0_linear)"/>
<path d="M187.142 0.0735287C184.695 0.373171 179.899 1.85265 169.037 22.0328C153.951 50.0556 153.98 65.997 145.923 83.2847C139.907 96.1923 127.98 112.847 101.784 127.684C103.763 130.014 105.742 132.345 107.718 134.676C118.341 135.525 135.069 135.564 154.284 129.802C160.275 128.006 171.211 124.642 182.923 117.038C191.666 111.36 218.549 93.9012 222.584 64.7943C226.993 32.976 202.518 -1.8138 187.142 0.0735287Z" fill="url(#paint1_linear)"/>
<path d="M112.02 131.207C112.02 131.207 94.3094 124.14 90.6679 126.423C87.0243 128.705 83.2705 137.691 80.5778 141.057C77.8852 144.424 85.1724 144.48 90.6679 139.518C96.1634 134.553 112.02 131.207 112.02 131.207Z" fill="url(#paint2_linear)"/>
<defs>
<linearGradient id="paint0_linear" x1="116.134" y1="48.2297" x2="272.051" y2="251.877" gradientUnits="userSpaceOnUse">
<stop stop-color="#FF9085"/>
<stop offset="1" stop-color="#FB6FBB"/>
</linearGradient>
<linearGradient id="paint1_linear" x1="286.797" y1="193.972" x2="119.712" y2="37.9213" gradientUnits="userSpaceOnUse">
<stop stop-color="#AA80F9"/>
<stop offset="0.9964" stop-color="#6165D7"/>
</linearGradient>
<linearGradient id="paint2_linear" x1="98.8053" y1="148.93" x2="107.578" y2="186.946" gradientUnits="userSpaceOnUse">
<stop stop-color="#FFC444"/>
<stop offset="0.9964" stop-color="#F36F56"/>
</linearGradient>
</defs>
</svg>
