<svg width="219" height="168" viewBox="0 0 219 168" fill="none" xmlns="http://www.w3.org/2000/svg">
<path d="M127.926 145.263L72.3943 84.3132C71.0543 82.5424 68.8444 81.6601 66.6533 82.018L3.05618 92.414C0.330263 92.8593 -0.924489 96.0575 0.769325 98.2383L52.4681 164.755C53.854 166.538 56.1262 167.391 58.3444 166.958L124.297 154.758C128.648 153.911 130.602 148.797 127.926 145.263Z" fill="url(#paint0_linear)"/>
<path d="M130.261 125.643L118.373 120.456C118.373 120.456 113.835 113.972 110.16 112.892C106.485 111.812 93.3007 113.324 93.3007 113.324C93.3007 113.324 94.597 118.512 97.1918 119.376C99.7846 120.241 107.783 120.888 109.08 123.483C110.376 126.076 115.131 128.021 116.86 127.158C118.589 126.292 129.612 129.967 129.612 129.967L130.261 125.643Z" fill="url(#paint1_linear)"/>
<path d="M80.3074 10.2869C90.72 -7.2901 139.741 -0.860263 172.764 18.3772C183.518 24.6427 216.314 43.747 218.607 76.9324C218.857 80.5385 219.498 95.194 210.902 108.907C196.446 131.971 162.264 142.148 126.149 133.176C126.534 129.324 126.919 125.47 127.303 121.619C130.379 121.725 142.621 121.793 153.499 112.758C155.678 110.948 168.627 100.192 166.598 90.4142C163.19 74.0005 122.251 82.9502 95.714 55.3581C83.8178 42.9875 73.4531 21.8564 80.3074 10.2869Z" fill="url(#paint2_linear)"/>
<defs>
<linearGradient id="paint0_linear" x1="34.8227" y1="88.6992" x2="94.0492" y2="159.625" gradientUnits="userSpaceOnUse">
<stop stop-color="#444B8C"/>
<stop offset="0.9964" stop-color="#26264F"/>
</linearGradient>
<linearGradient id="paint1_linear" x1="106.836" y1="102.595" x2="135.087" y2="199.161" gradientUnits="userSpaceOnUse">
<stop stop-color="#FFC444"/>
<stop offset="0.9964" stop-color="#F36F56"/>
</linearGradient>
<linearGradient id="paint2_linear" x1="196.401" y1="117.002" x2="33.0603" y2="-35.5521" gradientUnits="userSpaceOnUse">
<stop stop-color="#AA80F9"/>
<stop offset="0.9964" stop-color="#6165D7"/>
</linearGradient>
</defs>
</svg>
