<svg width="202" height="144" viewBox="0 0 202 144" fill="none" xmlns="http://www.w3.org/2000/svg">
<path d="M24.2224 0.995972L183.788 10.7053C189.911 10.5833 194.825 16.8139 194.464 24.2429L189.229 131.101C188.94 136.949 184.981 141.532 180.157 141.587L33.9659 143.302C30.3572 143.346 27.3703 139.89 27.2315 135.507L16.2555 11.2213C16.0834 5.70085 19.681 1.09029 24.2224 0.995972Z" fill="url(#paint0_linear)"/>
<path d="M26.5542 3.72009L182.15 13.5793C188.113 13.4627 192.898 19.3938 192.543 26.4622L187.446 128.127C187.169 133.692 183.31 138.048 178.613 138.103L36.2366 139.734C32.7223 139.773 29.8131 136.489 29.6799 132.316L18.7983 13.4461C18.6262 8.19194 22.1294 3.80332 26.5542 3.72009Z" fill="url(#paint1_linear)"/>
<path d="M182.494 13.4905L26.2766 3.64795C21.8296 3.73672 18.3153 8.142 18.4874 13.4128L20.003 30.4846L192.565 33.6526L192.926 26.4233C193.287 19.3327 188.479 13.374 182.494 13.4905Z" fill="url(#paint2_linear)"/>
<path d="M27.6091 9.47924C27.6091 10.3559 26.8984 11.066 26.0212 11.066C25.144 11.066 24.4334 10.3559 24.4334 9.47924C24.4334 8.60263 25.144 7.89246 26.0212 7.89246C26.8984 7.89246 27.6091 8.60263 27.6091 9.47924Z" fill="white"/>
<path d="M27.6091 14.1342C27.6091 15.0108 26.8984 15.7209 26.0212 15.7209C25.144 15.7209 24.4334 15.0108 24.4334 14.1342C24.4334 13.2575 25.144 12.5474 26.0212 12.5474C26.8984 12.5474 27.6091 13.2575 27.6091 14.1342Z" fill="white"/>
<path d="M27.6091 18.7891C27.6091 19.6657 26.8984 20.3758 26.0212 20.3758C25.144 20.3758 24.4334 19.6657 24.4334 18.7891C24.4334 17.9124 25.144 17.2023 26.0212 17.2023C26.8984 17.2023 27.6091 17.9124 27.6091 18.7891Z" fill="white"/>
<path d="M78.6138 45.1875H87.7244C90.1672 45.1875 92.1436 47.1627 92.1436 49.6039V92.1253C92.1436 113.564 81.8672 122.59 63.2408 122.59C60.1817 122.59 56.3565 122.263 52.981 121.608C50.6714 121.159 49.1391 118.951 49.4889 116.626L50.3272 111.011C50.6936 108.554 53.0143 106.9 55.4682 107.316C57.2559 107.621 59.199 107.805 61.2088 107.805C69.3367 107.805 74.1945 104.082 74.1945 91.5594V49.6039C74.2001 47.1627 76.1765 45.1875 78.6138 45.1875Z" fill="url(#paint3_linear)"/>
<path d="M107.156 107.682C107.839 105.136 110.592 103.749 113.041 104.725C117.677 106.573 123.528 108.032 129.746 108.032C137.991 108.032 142.393 104.875 142.393 99.9094C142.393 95.5097 138.668 92.6912 128.619 89.7562C115.184 85.9224 105.474 79.3755 105.474 66.8532C105.474 53.6541 117.327 43.8337 135.842 43.8337C143.404 43.8337 149.133 44.8823 153.73 46.4248C156.001 47.1904 157.261 49.6039 156.573 51.8953L154.841 57.6321C154.119 60.029 151.548 61.3383 149.178 60.5338C145.747 59.3687 141.122 58.2757 135.503 58.2757C127.598 58.2757 123.872 61.5492 123.872 65.4939C123.872 70.3431 128.725 72.3793 139.229 75.7637C153.791 80.3909 160.903 87.1597 160.903 98.8941C160.903 111.078 151.304 122.591 128.275 122.591C120.913 122.591 113.413 120.987 108.233 118.99C106.112 118.169 104.935 115.905 105.529 113.708L107.156 107.682Z" fill="url(#paint4_linear)"/>
<path opacity="0.69" d="M174.6 120.099C173.389 120.099 172.179 119.628 171.268 118.696C169.481 116.859 169.52 113.919 171.357 112.127L190.289 93.7176L171.352 72.934C169.625 71.0365 169.758 68.1015 171.657 66.3761C173.556 64.6506 176.493 64.7893 178.219 66.6812L200.182 90.7826C201.87 92.6357 201.781 95.493 199.988 97.2352L177.836 118.779C176.937 119.661 175.765 120.099 174.6 120.099Z" fill="white"/>
<path opacity="0.69" d="M33.0332 123.639C31.8673 123.639 30.6959 123.201 29.7909 122.324L2.01509 95.3098C0.216291 93.5621 0.13301 90.7048 1.82077 88.8572L29.3579 58.6362C31.0845 56.7387 34.027 56.6055 35.9202 58.331C37.8189 60.0565 37.9577 62.997 36.2255 64.889L11.7141 91.7867L36.2699 115.666C38.1076 117.453 38.152 120.393 36.3588 122.235C35.4483 123.167 34.2435 123.639 33.0332 123.639Z" fill="white"/>
<defs>
<linearGradient id="paint0_linear" x1="176.36" y1="14.9882" x2="33.5419" y2="123.802" gradientUnits="userSpaceOnUse">
<stop stop-color="#CB236D"/>
<stop offset="0.9001" stop-color="#59246D"/>
<stop offset="1" stop-color="#4C246D"/>
</linearGradient>
<linearGradient id="paint1_linear" x1="29.6725" y1="158.176" x2="195.597" y2="-40.0336" gradientUnits="userSpaceOnUse">
<stop stop-color="#FDF53F"/>
<stop offset="1" stop-color="#D93C65"/>
</linearGradient>
<linearGradient id="paint2_linear" x1="91.6623" y1="71.9694" x2="131.8" y2="-71.2101" gradientUnits="userSpaceOnUse">
<stop stop-color="#CB236D"/>
<stop offset="0.9001" stop-color="#59246D"/>
<stop offset="1" stop-color="#4C246D"/>
</linearGradient>
<linearGradient id="paint3_linear" x1="175.15" y1="-43.337" x2="46.3338" y2="125.429" gradientUnits="userSpaceOnUse">
<stop stop-color="#CB236D"/>
<stop offset="0.9001" stop-color="#59246D"/>
<stop offset="1" stop-color="#4C246D"/>
</linearGradient>
<linearGradient id="paint4_linear" x1="209.653" y1="-17.0012" x2="80.8377" y2="151.764" gradientUnits="userSpaceOnUse">
<stop stop-color="#CB236D"/>
<stop offset="0.9001" stop-color="#59246D"/>
<stop offset="1" stop-color="#4C246D"/>
</linearGradient>
</defs>
</svg>
