<svg width="100" height="100" viewBox="0 0 100 100" fill="none" xmlns="http://www.w3.org/2000/svg">
<path d="M70.5633 4.28263C70.2802 4.11618 69.9193 4.14392 69.6695 4.3603L62.5021 10.4578C58.3104 9.14285 53.8745 8.48816 49.3497 8.58803L44.1643 0.748415C43.9811 0.471005 43.648 0.343395 43.326 0.426618L32.3944 3.23956C32.0724 3.32278 31.8448 3.60019 31.817 3.92753L31.062 13.2985C27.0535 15.3957 23.4837 18.1032 20.4468 21.2768L11.2252 19.3959C10.9032 19.3293 10.5701 19.4736 10.4036 19.7621L4.66297 29.477C4.49641 29.76 4.52416 30.1206 4.74068 30.3703L10.8422 37.533C9.52638 41.7219 8.87682 46.1549 8.9712 50.6767L1.12089 55.8587C0.843296 56.0418 0.715611 56.3747 0.798889 56.6965L3.61366 67.6209C3.69694 67.9427 3.96899 68.1702 4.3021 68.1979L13.6791 68.9525C15.7777 72.9583 18.487 76.5258 21.6627 79.5606L19.7806 88.7762C19.714 89.098 19.8583 89.4309 20.147 89.5973L29.8683 95.3342C30.1515 95.5006 30.5123 95.4729 30.7622 95.2565L37.9296 89.159C42.1212 90.4739 46.5571 91.1286 51.0819 91.0288L56.2673 98.8739C56.4505 99.1513 56.7836 99.279 57.1056 99.1957L68.0372 96.3828C68.3592 96.2996 68.5868 96.0277 68.6146 95.6948L69.3697 86.3239C73.3781 84.2267 76.9479 81.5192 79.9848 78.3456L89.2064 80.2264C89.5284 80.293 89.8615 80.1488 90.0281 79.8602L95.7687 70.1453C95.9352 69.8624 95.9075 69.5018 95.6909 69.2521L89.5895 62.0894C90.9053 57.9005 91.5604 53.4674 91.4604 48.9457L99.3107 43.7636C99.5883 43.5805 99.716 43.2477 99.6327 42.9259L96.818 32.0014C96.7347 31.6796 96.4626 31.4522 96.1295 31.4244L86.7525 30.6699C84.6539 26.6641 81.9446 23.0966 78.7689 20.0617L80.651 10.8461C80.7176 10.5243 80.5733 10.1915 80.2846 10.025L70.5633 4.28263Z" fill="url(#paint0_linear)"/>
<path d="M50.2269 60.6468C46.3795 60.6468 42.6431 58.5995 40.6777 54.9932C39.2898 52.4466 38.9789 49.5171 39.795 46.7375C40.6167 43.9578 42.4654 41.6608 45.0137 40.2738C47.562 38.8867 50.4934 38.5761 53.2749 39.3916C56.0563 40.2128 58.3548 42.0603 59.7428 44.6069C62.6075 49.8611 60.6644 56.4635 55.4068 59.3263C53.7634 60.2196 51.9813 60.6468 50.2269 60.6468ZM50.1991 40.6067C48.6835 40.6067 47.1789 40.984 45.8132 41.733C43.6591 42.9092 42.0879 44.8511 41.3939 47.2035C40.7 49.5559 40.9664 52.0415 42.1379 54.1942C44.564 58.6439 50.1603 60.2862 54.6073 57.8616C59.0543 55.437 60.7032 49.85 58.2771 45.4003C57.1001 43.2476 55.1569 41.6775 52.803 40.984C51.948 40.7343 51.0708 40.6067 50.1991 40.6067Z" fill="white"/>
<path d="M50.1103 78.0682C37.6076 78.0682 26.1764 69.6461 22.9174 57.0017C22.3178 54.6715 22.018 52.3079 22.018 49.961C22.018 45.0065 23.3449 40.1185 25.9321 35.741C29.7462 29.2884 35.8477 24.7112 43.1095 22.8414C44.8472 22.3976 46.6182 22.1146 48.3948 22.0036C48.6058 21.9925 48.8168 21.9814 49.0222 21.9703L49.0888 23.6348C47.2234 23.7069 45.3524 23.9843 43.5259 24.4504C41.6771 24.9275 39.9116 25.5878 38.2405 26.42C38.235 26.42 38.2349 26.4255 38.2294 26.4255C34.332 28.3785 30.9842 31.2636 28.4582 34.8866C28.0751 35.4358 27.7087 36.0017 27.3644 36.5843C24.9272 40.7011 23.6836 45.3005 23.6836 49.961C23.6836 52.1692 23.9612 54.3885 24.5275 56.58C28.1528 70.6725 42.5765 79.189 56.6781 75.566C63.5069 73.8128 69.2475 69.5018 72.834 63.4321C75.2713 59.3153 76.5149 54.7159 76.5149 50.0554C76.5149 47.8472 76.2373 45.6279 75.671 43.4363C74.4774 38.8036 72.0568 34.587 68.6701 31.2469L69.8416 30.0652C73.4447 33.616 76.0207 38.099 77.2866 43.0258C77.8862 45.356 78.186 47.7196 78.1804 50.0664C78.1804 55.021 76.8536 59.909 74.2664 64.2865C70.4523 70.7391 64.3508 75.3163 57.089 77.1861C54.7628 77.7797 52.4199 78.0682 50.1103 78.0682Z" fill="white"/>
<defs>
<linearGradient id="paint0_linear" x1="64.1382" y1="2.37086" x2="36.3163" y2="97.2312" gradientUnits="userSpaceOnUse">
<stop stop-color="#A737D5"/>
<stop offset="1" stop-color="#EF497A"/>
</linearGradient>
</defs>
</svg>
