<svg width="446" height="1024" viewBox="0 0 446 1024" fill="none" xmlns="http://www.w3.org/2000/svg">
<path fill-rule="evenodd" clip-rule="evenodd" d="M232.619 0C233.509 14.0994 233.632 28.602 233.755 43.0086C234.149 89.3745 234.535 134.746 260.451 162.478C284.1 187.787 310.537 178.639 336.522 169.648C360.909 161.209 384.898 152.908 405.813 173.354C469.902 235.999 458.198 522.657 364.497 700.764C356.304 716.335 348.504 729.141 341.303 740.962C323.735 769.802 309.738 792.778 302.342 835.743C289.492 910.392 309.935 967.684 326.86 1015.12C327.931 1018.12 328.987 1021.08 330.02 1024H0V0H232.619Z" fill="#88ACD0" fill-opacity="0.1"/>
</svg>
